<mxfile host="app.diagrams.net" modified="2021-01-18T08:10:22.725Z" agent="5.0 (X11)" etag="WWiZ75bLmNM2oika64Kq" version="14.1.8" type="github" pages="8">
  <diagram id="0JeVI4y79oNMQUJZnk2E" name="Page-4">
    <mxGraphModel dx="1357" dy="807" grid="0" gridSize="10" guides="1" tooltips="1" connect="1" arrows="1" fold="1" page="1" pageScale="1" pageWidth="1169" pageHeight="827" background="#ffffff" math="1" shadow="0">
      <root>
        <mxCell id="f8F4ityLIGbXevkoASlZ-0" />
        <mxCell id="f8F4ityLIGbXevkoASlZ-1" parent="f8F4ityLIGbXevkoASlZ-0" />
        <mxCell id="7CdX3RvJnE9fq7ostzmj-6" value="" style="group" parent="f8F4ityLIGbXevkoASlZ-1" vertex="1" connectable="0">
          <mxGeometry x="212" y="161" width="912" height="394" as="geometry" />
        </mxCell>
        <mxCell id="WH9B3-VsasH7qFReulRE-0" value="" style="ellipse;whiteSpace=wrap;html=1;aspect=fixed;strokeWidth=4;fillColor=#2a2a2a;gradientColor=none;strokeColor=none;" parent="7CdX3RvJnE9fq7ostzmj-6" vertex="1">
          <mxGeometry x="65" y="235" width="15" height="15" as="geometry" />
        </mxCell>
        <mxCell id="WH9B3-VsasH7qFReulRE-20" value="" style="curved=1;endArrow=none;html=1;strokeColor=#00B300;strokeWidth=5;endFill=0;" parent="7CdX3RvJnE9fq7ostzmj-6" source="WH9B3-VsasH7qFReulRE-21" edge="1">
          <mxGeometry width="50" height="50" relative="1" as="geometry">
            <mxPoint x="5" y="380" as="sourcePoint" />
            <mxPoint x="835" y="105" as="targetPoint" />
            <Array as="points">
              <mxPoint x="135" />
            </Array>
          </mxGeometry>
        </mxCell>
        <mxCell id="WH9B3-VsasH7qFReulRE-21" value="" style="ellipse;whiteSpace=wrap;html=1;aspect=fixed;strokeWidth=4;fillColor=#2a2a2a;gradientColor=none;strokeColor=none;" parent="7CdX3RvJnE9fq7ostzmj-6" vertex="1">
          <mxGeometry y="368" width="15" height="15" as="geometry" />
        </mxCell>
        <mxCell id="WH9B3-VsasH7qFReulRE-22" value="" style="curved=1;endArrow=none;html=1;strokeColor=#00B300;strokeWidth=5;endFill=0;" parent="7CdX3RvJnE9fq7ostzmj-6" target="WH9B3-VsasH7qFReulRE-21" edge="1">
          <mxGeometry width="50" height="50" relative="1" as="geometry">
            <mxPoint x="5" y="380" as="sourcePoint" />
            <mxPoint x="835" y="105" as="targetPoint" />
            <Array as="points" />
          </mxGeometry>
        </mxCell>
        <mxCell id="WH9B3-VsasH7qFReulRE-23" value="" style="ellipse;whiteSpace=wrap;html=1;aspect=fixed;strokeWidth=4;fillColor=#2a2a2a;gradientColor=none;strokeColor=none;" parent="7CdX3RvJnE9fq7ostzmj-6" vertex="1">
          <mxGeometry x="324" y="70" width="15" height="15" as="geometry" />
        </mxCell>
        <mxCell id="WH9B3-VsasH7qFReulRE-24" value="" style="ellipse;whiteSpace=wrap;html=1;aspect=fixed;strokeWidth=4;fillColor=#2a2a2a;gradientColor=none;strokeColor=none;" parent="7CdX3RvJnE9fq7ostzmj-6" vertex="1">
          <mxGeometry x="393" y="90" width="15" height="15" as="geometry" />
        </mxCell>
        <mxCell id="WH9B3-VsasH7qFReulRE-25" value="" style="ellipse;whiteSpace=wrap;html=1;aspect=fixed;strokeWidth=4;fillColor=#2a2a2a;gradientColor=none;strokeColor=none;" parent="7CdX3RvJnE9fq7ostzmj-6" vertex="1">
          <mxGeometry x="504" y="65" width="15" height="15" as="geometry" />
        </mxCell>
        <mxCell id="WH9B3-VsasH7qFReulRE-26" value="" style="ellipse;whiteSpace=wrap;html=1;aspect=fixed;strokeWidth=4;fillColor=#2a2a2a;gradientColor=none;strokeColor=none;" parent="7CdX3RvJnE9fq7ostzmj-6" vertex="1">
          <mxGeometry x="831" y="99" width="15" height="15" as="geometry" />
        </mxCell>
        <mxCell id="WH9B3-VsasH7qFReulRE-27" value="" style="ellipse;whiteSpace=wrap;html=1;aspect=fixed;strokeWidth=4;fillColor=#2a2a2a;gradientColor=none;strokeColor=none;" parent="7CdX3RvJnE9fq7ostzmj-6" vertex="1">
          <mxGeometry x="706" y="92" width="15" height="15" as="geometry" />
        </mxCell>
        <mxCell id="WH9B3-VsasH7qFReulRE-28" value="" style="ellipse;whiteSpace=wrap;html=1;aspect=fixed;strokeWidth=4;fillColor=#2a2a2a;gradientColor=none;strokeColor=none;" parent="7CdX3RvJnE9fq7ostzmj-6" vertex="1">
          <mxGeometry x="620" y="65" width="15" height="15" as="geometry" />
        </mxCell>
        <mxCell id="WH9B3-VsasH7qFReulRE-29" value="" style="ellipse;whiteSpace=wrap;html=1;aspect=fixed;strokeWidth=4;fillColor=#2a2a2a;gradientColor=none;strokeColor=none;" parent="7CdX3RvJnE9fq7ostzmj-6" vertex="1">
          <mxGeometry x="241" y="134" width="15" height="15" as="geometry" />
        </mxCell>
        <mxCell id="WH9B3-VsasH7qFReulRE-30" value="" style="ellipse;whiteSpace=wrap;html=1;aspect=fixed;strokeWidth=4;fillColor=#2a2a2a;gradientColor=none;strokeColor=none;" parent="7CdX3RvJnE9fq7ostzmj-6" vertex="1">
          <mxGeometry x="185" y="122.5" width="15" height="15" as="geometry" />
        </mxCell>
        <mxCell id="WH9B3-VsasH7qFReulRE-31" value="" style="ellipse;whiteSpace=wrap;html=1;aspect=fixed;strokeWidth=4;fillColor=#2a2a2a;gradientColor=none;strokeColor=none;" parent="7CdX3RvJnE9fq7ostzmj-6" vertex="1">
          <mxGeometry x="145" y="189" width="15" height="15" as="geometry" />
        </mxCell>
        <mxCell id="7CdX3RvJnE9fq7ostzmj-0" value="&lt;font style=&quot;font-size: 18px&quot;&gt;`P_0 ( x_0, y_0 )`&lt;/font&gt;" style="text;html=1;fillColor=none;align=center;verticalAlign=middle;whiteSpace=wrap;rounded=0;fontColor=#000000;fontSize=14;fontStyle=1" parent="7CdX3RvJnE9fq7ostzmj-6" vertex="1">
          <mxGeometry x="25" y="374" width="137" height="20" as="geometry" />
        </mxCell>
        <mxCell id="7CdX3RvJnE9fq7ostzmj-1" value="&lt;font style=&quot;font-size: 18px&quot;&gt;`P_i ( x_k, y_k )`&lt;/font&gt;" style="text;html=1;fillColor=none;align=center;verticalAlign=middle;whiteSpace=wrap;rounded=0;fontColor=#000000;fontSize=14;fontStyle=1" parent="7CdX3RvJnE9fq7ostzmj-6" vertex="1">
          <mxGeometry x="330" y="114" width="186" height="44" as="geometry" />
        </mxCell>
        <mxCell id="7CdX3RvJnE9fq7ostzmj-3" value="&lt;font style=&quot;font-size: 18px&quot;&gt;`P_n ( x_n, y_n )`&lt;/font&gt;" style="text;html=1;fillColor=none;align=center;verticalAlign=middle;whiteSpace=wrap;rounded=0;fontColor=#000000;fontSize=14;fontStyle=1" parent="7CdX3RvJnE9fq7ostzmj-6" vertex="1">
          <mxGeometry x="776" y="129" width="136" height="20" as="geometry" />
        </mxCell>
      </root>
    </mxGraphModel>
  </diagram>
  <diagram id="FJ2nE_yomXhn5pENyMo0" name="Page-3">
    <mxGraphModel dx="919" dy="618" grid="1" gridSize="10" guides="1" tooltips="1" connect="1" arrows="1" fold="1" page="1" pageScale="1" pageWidth="1169" pageHeight="827" background="#ffffff" math="0" shadow="0">
      <root>
        <mxCell id="ToawQGv2b0d8S6mhemMl-0" />
        <mxCell id="ToawQGv2b0d8S6mhemMl-1" parent="ToawQGv2b0d8S6mhemMl-0" />
        <mxCell id="4LOiGytlx0I-MUQJASyl-8" value="" style="ellipse;whiteSpace=wrap;html=1;aspect=fixed;strokeColor=#000000;fontSize=14;fontColor=#000000;fillColor=none;" parent="ToawQGv2b0d8S6mhemMl-1" vertex="1">
          <mxGeometry x="420" y="191" width="280" height="280" as="geometry" />
        </mxCell>
        <mxCell id="4LOiGytlx0I-MUQJASyl-6" value="theta1" style="text;html=1;fillColor=none;align=center;verticalAlign=middle;whiteSpace=wrap;rounded=0;fontSize=10;fontStyle=1;fontColor=#3399FF;" parent="ToawQGv2b0d8S6mhemMl-1" vertex="1">
          <mxGeometry x="522" y="362" width="38" height="20" as="geometry" />
        </mxCell>
        <mxCell id="4LOiGytlx0I-MUQJASyl-7" value="" style="endArrow=none;html=1;strokeColor=#000000;strokeWidth=2;startArrow=none;startFill=0;endFill=0;dashed=1;entryX=1;entryY=1;entryDx=0;entryDy=0;exitX=0;exitY=1;exitDx=0;exitDy=0;" parent="ToawQGv2b0d8S6mhemMl-1" source="4LOiGytlx0I-MUQJASyl-8" target="4LOiGytlx0I-MUQJASyl-8" edge="1">
          <mxGeometry width="50" height="50" relative="1" as="geometry">
            <mxPoint x="270" y="381" as="sourcePoint" />
            <mxPoint x="360" y="291" as="targetPoint" />
          </mxGeometry>
        </mxCell>
        <mxCell id="4LOiGytlx0I-MUQJASyl-9" value="" style="endArrow=none;html=1;dashed=1;strokeColor=#000000;strokeWidth=2;fontSize=14;fontColor=#000000;exitX=0;exitY=0.5;exitDx=0;exitDy=0;entryX=1;entryY=0.5;entryDx=0;entryDy=0;" parent="ToawQGv2b0d8S6mhemMl-1" source="4LOiGytlx0I-MUQJASyl-8" target="4LOiGytlx0I-MUQJASyl-8" edge="1">
          <mxGeometry width="50" height="50" relative="1" as="geometry">
            <mxPoint x="410" y="280" as="sourcePoint" />
            <mxPoint x="460" y="230" as="targetPoint" />
          </mxGeometry>
        </mxCell>
        <mxCell id="4LOiGytlx0I-MUQJASyl-10" value="" style="endArrow=none;html=1;strokeWidth=2;fontSize=14;fontColor=#000000;exitX=0;exitY=0.75;exitDx=0;exitDy=0;fillColor=#e51400;strokeColor=#FF9933;" parent="ToawQGv2b0d8S6mhemMl-1" source="uFXd101UEMglb_fdY7vO-0" edge="1">
          <mxGeometry width="50" height="50" relative="1" as="geometry">
            <mxPoint x="90" y="401" as="sourcePoint" />
            <mxPoint x="560" y="331" as="targetPoint" />
          </mxGeometry>
        </mxCell>
        <mxCell id="4LOiGytlx0I-MUQJASyl-11" value="" style="endArrow=none;html=1;dashed=1;strokeColor=#000000;strokeWidth=2;fontSize=14;fontColor=#000000;exitX=0;exitY=1;exitDx=0;exitDy=0;" parent="ToawQGv2b0d8S6mhemMl-1" source="4LOiGytlx0I-MUQJASyl-8" edge="1">
          <mxGeometry width="50" height="50" relative="1" as="geometry">
            <mxPoint x="330" y="521" as="sourcePoint" />
            <mxPoint x="560" y="331" as="targetPoint" />
          </mxGeometry>
        </mxCell>
        <mxCell id="4LOiGytlx0I-MUQJASyl-12" value="" style="endArrow=none;html=1;dashed=1;strokeColor=#000000;strokeWidth=2;fontSize=14;fontColor=#000000;exitX=1;exitY=1;exitDx=0;exitDy=0;" parent="ToawQGv2b0d8S6mhemMl-1" source="4LOiGytlx0I-MUQJASyl-8" edge="1">
          <mxGeometry width="50" height="50" relative="1" as="geometry">
            <mxPoint x="412.5399999999999" y="610.04" as="sourcePoint" />
            <mxPoint x="560" y="331" as="targetPoint" />
          </mxGeometry>
        </mxCell>
        <mxCell id="4LOiGytlx0I-MUQJASyl-13" value="" style="endArrow=none;html=1;strokeWidth=2;fontSize=14;fontColor=#000000;entryX=0.5;entryY=1;entryDx=0;entryDy=0;exitX=1;exitY=1;exitDx=0;exitDy=0;endFill=0;startArrow=blockThin;startFill=1;fillColor=#0050ef;rounded=0;strokeColor=#3399FF;" parent="ToawQGv2b0d8S6mhemMl-1" source="4LOiGytlx0I-MUQJASyl-8" target="4LOiGytlx0I-MUQJASyl-8" edge="1">
          <mxGeometry width="50" height="50" relative="1" as="geometry">
            <mxPoint x="300" y="561" as="sourcePoint" />
            <mxPoint x="350" y="511" as="targetPoint" />
          </mxGeometry>
        </mxCell>
        <mxCell id="4LOiGytlx0I-MUQJASyl-14" value="" style="endArrow=none;html=1;strokeWidth=2;fontSize=14;fontColor=#000000;exitX=0;exitY=1;exitDx=0;exitDy=0;entryX=0.5;entryY=1;entryDx=0;entryDy=0;startArrow=blockThin;startFill=1;fillColor=#0050ef;rounded=0;strokeColor=#007FFF;" parent="ToawQGv2b0d8S6mhemMl-1" source="4LOiGytlx0I-MUQJASyl-8" target="4LOiGytlx0I-MUQJASyl-8" edge="1">
          <mxGeometry width="50" height="50" relative="1" as="geometry">
            <mxPoint x="668.9949493661165" y="439.99494936611654" as="sourcePoint" />
            <mxPoint x="560" y="471" as="targetPoint" />
          </mxGeometry>
        </mxCell>
        <mxCell id="4LOiGytlx0I-MUQJASyl-15" value="" style="endArrow=none;html=1;dashed=1;strokeColor=#000000;strokeWidth=2;fontSize=14;fontColor=#000000;entryX=0.5;entryY=1;entryDx=0;entryDy=0;exitX=1;exitY=1;exitDx=0;exitDy=0;" parent="ToawQGv2b0d8S6mhemMl-1" edge="1">
          <mxGeometry width="50" height="50" relative="1" as="geometry">
            <mxPoint x="560.9949493661165" y="389.00494936611653" as="sourcePoint" />
            <mxPoint x="462" y="430.01" as="targetPoint" />
          </mxGeometry>
        </mxCell>
        <mxCell id="4LOiGytlx0I-MUQJASyl-17" value="" style="endArrow=none;html=1;dashed=1;strokeColor=#000000;strokeWidth=2;fontSize=14;fontColor=#000000;exitX=0;exitY=1;exitDx=0;exitDy=0;entryX=0.5;entryY=1;entryDx=0;entryDy=0;" parent="ToawQGv2b0d8S6mhemMl-1" edge="1">
          <mxGeometry width="50" height="50" relative="1" as="geometry">
            <mxPoint x="561.0050506338835" y="389.00494936611653" as="sourcePoint" />
            <mxPoint x="660" y="430.0099999999999" as="targetPoint" />
          </mxGeometry>
        </mxCell>
        <mxCell id="4LOiGytlx0I-MUQJASyl-18" value="" style="endArrow=blockThin;html=1;strokeWidth=2;fontSize=14;endFill=1;gradientColor=#97d077;fillColor=#d5e8d4;strokeColor=#00CC00;entryX=0;entryY=0.75;entryDx=0;entryDy=0;fontColor=#00CC00;" parent="ToawQGv2b0d8S6mhemMl-1" target="uFXd101UEMglb_fdY7vO-0" edge="1">
          <mxGeometry width="50" height="50" relative="1" as="geometry">
            <mxPoint x="560" y="471" as="sourcePoint" />
            <mxPoint x="560" y="391" as="targetPoint" />
          </mxGeometry>
        </mxCell>
        <mxCell id="4LOiGytlx0I-MUQJASyl-19" value="P0 ( x0, y0 )" style="text;html=1;fillColor=none;align=center;verticalAlign=middle;whiteSpace=wrap;rounded=0;fontSize=14;fontStyle=1;fontColor=#007FFF;" parent="ToawQGv2b0d8S6mhemMl-1" vertex="1">
          <mxGeometry x="380" y="431" width="90" height="20" as="geometry" />
        </mxCell>
        <mxCell id="4LOiGytlx0I-MUQJASyl-20" value="P1 ( x1, y1 )" style="text;html=1;fillColor=none;align=center;verticalAlign=middle;whiteSpace=wrap;rounded=0;fontSize=14;fontStyle=1;fontColor=#007FFF;" parent="ToawQGv2b0d8S6mhemMl-1" vertex="1">
          <mxGeometry x="520" y="481" width="90" height="20" as="geometry" />
        </mxCell>
        <mxCell id="4LOiGytlx0I-MUQJASyl-21" value="P2 ( x2, y2 )" style="text;html=1;fillColor=none;align=center;verticalAlign=middle;whiteSpace=wrap;rounded=0;fontSize=14;fontStyle=1;fontColor=#007FFF;" parent="ToawQGv2b0d8S6mhemMl-1" vertex="1">
          <mxGeometry x="660" y="431" width="90" height="20" as="geometry" />
        </mxCell>
        <mxCell id="4LOiGytlx0I-MUQJASyl-22" value="ds" style="text;html=1;fillColor=none;align=center;verticalAlign=middle;whiteSpace=wrap;rounded=0;fontSize=14;fontStyle=1;fontColor=#007FFF;" parent="ToawQGv2b0d8S6mhemMl-1" vertex="1">
          <mxGeometry x="580" y="454" width="90" height="20" as="geometry" />
        </mxCell>
        <mxCell id="4LOiGytlx0I-MUQJASyl-23" value="ds" style="text;html=1;fillColor=none;align=center;verticalAlign=middle;whiteSpace=wrap;rounded=0;fontSize=14;fontStyle=1;fontColor=#3399FF;" parent="ToawQGv2b0d8S6mhemMl-1" vertex="1">
          <mxGeometry x="453" y="454" width="90" height="20" as="geometry" />
        </mxCell>
        <mxCell id="4LOiGytlx0I-MUQJASyl-24" value="R" style="text;html=1;fillColor=none;align=center;verticalAlign=middle;whiteSpace=wrap;rounded=0;fontColor=#000000;fontSize=14;fontStyle=1" parent="ToawQGv2b0d8S6mhemMl-1" vertex="1">
          <mxGeometry x="568" y="355" width="90" height="20" as="geometry" />
        </mxCell>
        <mxCell id="4LOiGytlx0I-MUQJASyl-25" value="R" style="text;html=1;fillColor=none;align=center;verticalAlign=middle;whiteSpace=wrap;rounded=0;fontColor=#000000;fontSize=14;fontStyle=1" parent="ToawQGv2b0d8S6mhemMl-1" vertex="1">
          <mxGeometry x="500" y="355" width="20" height="20" as="geometry" />
        </mxCell>
        <mxCell id="uFXd101UEMglb_fdY7vO-0" value="P3" style="text;html=1;fillColor=none;align=center;verticalAlign=middle;whiteSpace=wrap;rounded=0;fontSize=14;fontStyle=1;fontColor=#00CC00;" parent="ToawQGv2b0d8S6mhemMl-1" vertex="1">
          <mxGeometry x="560.25" y="374" width="30" height="20" as="geometry" />
        </mxCell>
        <mxCell id="uFXd101UEMglb_fdY7vO-1" value="O" style="text;html=1;fillColor=none;align=center;verticalAlign=middle;whiteSpace=wrap;rounded=0;fontColor=#000000;fontSize=14;fontStyle=1" parent="ToawQGv2b0d8S6mhemMl-1" vertex="1">
          <mxGeometry x="543" y="309" width="14" height="20" as="geometry" />
        </mxCell>
        <mxCell id="k4BzqRfUvH9KY8tjO-jY-0" value="" style="verticalLabelPosition=bottom;verticalAlign=top;html=1;shape=mxgraph.basic.arc;startAngle=0.39758361765043326;endAngle=0.5906090085310911;fontSize=14;fontColor=#000000;strokeColor=#000000;" parent="ToawQGv2b0d8S6mhemMl-1" vertex="1">
          <mxGeometry x="520" y="281" width="80" height="81" as="geometry" />
        </mxCell>
        <mxCell id="k4BzqRfUvH9KY8tjO-jY-1" value="" style="verticalLabelPosition=bottom;verticalAlign=top;html=1;shape=mxgraph.basic.arc;startAngle=0.8701044693787208;endAngle=0.13815956485558364;fontSize=14;fontColor=#000000;strokeColor=#000000;" parent="ToawQGv2b0d8S6mhemMl-1" vertex="1">
          <mxGeometry x="537.5" y="454" width="45" height="57" as="geometry" />
        </mxCell>
        <mxCell id="k4BzqRfUvH9KY8tjO-jY-4" value="" style="shape=partialRectangle;whiteSpace=wrap;html=1;bottom=0;right=0;strokeColor=#B20000;fontSize=14;fontColor=#ffffff;rotation=90;fillColor=none;strokeWidth=2;" parent="ToawQGv2b0d8S6mhemMl-1" vertex="1">
          <mxGeometry x="558.75" y="419.75" width="12.5" height="10" as="geometry" />
        </mxCell>
        <mxCell id="k4BzqRfUvH9KY8tjO-jY-6" value="theta2" style="text;html=1;fillColor=none;align=center;verticalAlign=middle;whiteSpace=wrap;rounded=0;fontSize=10;fontStyle=1;fontColor=#00CC00;" parent="ToawQGv2b0d8S6mhemMl-1" vertex="1">
          <mxGeometry x="520" y="435" width="38" height="20" as="geometry" />
        </mxCell>
        <mxCell id="k4BzqRfUvH9KY8tjO-jY-7" value="" style="endArrow=none;html=1;dashed=1;strokeColor=#000000;strokeWidth=2;fontSize=14;fontColor=#000000;entryX=0.5;entryY=0;entryDx=0;entryDy=0;" parent="ToawQGv2b0d8S6mhemMl-1" target="4LOiGytlx0I-MUQJASyl-8" edge="1">
          <mxGeometry width="50" height="50" relative="1" as="geometry">
            <mxPoint x="560" y="331" as="sourcePoint" />
            <mxPoint x="570" y="201" as="targetPoint" />
          </mxGeometry>
        </mxCell>
        <mxCell id="k4BzqRfUvH9KY8tjO-jY-8" value="C" style="text;html=1;fillColor=none;align=center;verticalAlign=middle;whiteSpace=wrap;rounded=0;fontSize=12;fontStyle=1;fontColor=#00CC00;" parent="ToawQGv2b0d8S6mhemMl-1" vertex="1">
          <mxGeometry x="571.25" y="409.75" width="14" height="20" as="geometry" />
        </mxCell>
      </root>
    </mxGraphModel>
  </diagram>
  <diagram id="tvtIKhyV1O0-T3Sdl4FX" name="Page-2">
    <mxGraphModel dx="919" dy="618" grid="1" gridSize="10" guides="1" tooltips="1" connect="1" arrows="1" fold="1" page="1" pageScale="1" pageWidth="1169" pageHeight="827" background="#ffffff" math="0" shadow="0">
      <root>
        <mxCell id="t-Sdtp0R812g-nXroGzI-0" />
        <mxCell id="t-Sdtp0R812g-nXroGzI-1" parent="t-Sdtp0R812g-nXroGzI-0" />
        <mxCell id="t-Sdtp0R812g-nXroGzI-2" value="" style="endArrow=none;html=1;strokeColor=#000000;strokeWidth=4;startArrow=blockThin;startFill=1;endFill=0;" parent="t-Sdtp0R812g-nXroGzI-1" edge="1">
          <mxGeometry width="50" height="50" relative="1" as="geometry">
            <mxPoint x="400" y="330" as="sourcePoint" />
            <mxPoint x="490" y="240" as="targetPoint" />
          </mxGeometry>
        </mxCell>
        <mxCell id="t-Sdtp0R812g-nXroGzI-3" value="" style="endArrow=blockThin;html=1;strokeColor=#000000;strokeWidth=4;endFill=1;" parent="t-Sdtp0R812g-nXroGzI-1" edge="1">
          <mxGeometry width="50" height="50" relative="1" as="geometry">
            <mxPoint x="490" y="240" as="sourcePoint" />
            <mxPoint x="660" y="210" as="targetPoint" />
          </mxGeometry>
        </mxCell>
        <mxCell id="t-Sdtp0R812g-nXroGzI-4" value="" style="endArrow=none;html=1;strokeColor=#000000;strokeWidth=4;startArrow=none;startFill=0;endFill=0;dashed=1;" parent="t-Sdtp0R812g-nXroGzI-1" edge="1">
          <mxGeometry width="50" height="50" relative="1" as="geometry">
            <mxPoint x="570" y="300" as="sourcePoint" />
            <mxPoint x="660" y="210" as="targetPoint" />
          </mxGeometry>
        </mxCell>
        <mxCell id="t-Sdtp0R812g-nXroGzI-5" value="" style="endArrow=none;html=1;strokeColor=#000000;strokeWidth=4;endFill=0;dashed=1;" parent="t-Sdtp0R812g-nXroGzI-1" edge="1">
          <mxGeometry width="50" height="50" relative="1" as="geometry">
            <mxPoint x="400" y="330" as="sourcePoint" />
            <mxPoint x="570" y="300" as="targetPoint" />
          </mxGeometry>
        </mxCell>
        <mxCell id="t-Sdtp0R812g-nXroGzI-7" value="" style="endArrow=blockThin;html=1;strokeColor=#000000;strokeWidth=4;endFill=1;" parent="t-Sdtp0R812g-nXroGzI-1" edge="1">
          <mxGeometry width="50" height="50" relative="1" as="geometry">
            <mxPoint x="490" y="240" as="sourcePoint" />
            <mxPoint x="560" y="300" as="targetPoint" />
          </mxGeometry>
        </mxCell>
        <mxCell id="pOHL2yp6pSBohHUREj36-0" value="P1 ( x1, y1 )" style="text;html=1;fillColor=none;align=center;verticalAlign=middle;whiteSpace=wrap;rounded=0;fontColor=#000000;fontSize=14;fontStyle=1" parent="t-Sdtp0R812g-nXroGzI-1" vertex="1">
          <mxGeometry x="420" y="210" width="90" height="20" as="geometry" />
        </mxCell>
        <mxCell id="4u09DKBZBWlMYJ-NqpqB-0" value="P0 ( x0, y0 )" style="text;html=1;fillColor=none;align=center;verticalAlign=middle;whiteSpace=wrap;rounded=0;fontColor=#000000;fontSize=14;fontStyle=1" parent="t-Sdtp0R812g-nXroGzI-1" vertex="1">
          <mxGeometry x="352" y="339" width="90" height="20" as="geometry" />
        </mxCell>
        <mxCell id="4u09DKBZBWlMYJ-NqpqB-1" value="P2 ( x2, y2 )" style="text;html=1;fillColor=none;align=center;verticalAlign=middle;whiteSpace=wrap;rounded=0;fontColor=#000000;fontSize=14;fontStyle=1" parent="t-Sdtp0R812g-nXroGzI-1" vertex="1">
          <mxGeometry x="640" y="180" width="90" height="20" as="geometry" />
        </mxCell>
        <mxCell id="4u09DKBZBWlMYJ-NqpqB-2" value="P‘" style="text;html=1;fillColor=none;align=center;verticalAlign=middle;whiteSpace=wrap;rounded=0;fontColor=#000000;fontSize=14;fontStyle=1" parent="t-Sdtp0R812g-nXroGzI-1" vertex="1">
          <mxGeometry x="526" y="310" width="90" height="20" as="geometry" />
        </mxCell>
      </root>
    </mxGraphModel>
  </diagram>
  <diagram id="6e6QVuMAChF1wa0YB66m" name="Page-1">
    <mxGraphModel dx="1357" dy="807" grid="0" gridSize="10" guides="1" tooltips="1" connect="1" arrows="1" fold="1" page="1" pageScale="1" pageWidth="1169" pageHeight="827" background="#ffffff" math="0" shadow="0">
      <root>
        <mxCell id="0" />
        <mxCell id="1" parent="0" />
        <mxCell id="2" value="" style="endArrow=blockThin;html=1;strokeColor=#000000;strokeWidth=4;startArrow=none;startFill=0;endFill=1;" parent="1" edge="1">
          <mxGeometry width="50" height="50" relative="1" as="geometry">
            <mxPoint x="400" y="330" as="sourcePoint" />
            <mxPoint x="490" y="240" as="targetPoint" />
          </mxGeometry>
        </mxCell>
        <mxCell id="3" value="" style="endArrow=blockThin;html=1;strokeWidth=4;endFill=1;fillColor=#d5e8d4;gradientColor=#97d077;strokeColor=#00B300;" parent="1" edge="1">
          <mxGeometry width="50" height="50" relative="1" as="geometry">
            <mxPoint x="490" y="240" as="sourcePoint" />
            <mxPoint x="660" y="210" as="targetPoint" />
          </mxGeometry>
        </mxCell>
        <mxCell id="5" value="P0 ( x0, y0 )" style="text;html=1;fillColor=none;align=center;verticalAlign=middle;whiteSpace=wrap;rounded=0;fontColor=#000000;fontSize=14;fontStyle=1" parent="1" vertex="1">
          <mxGeometry x="352" y="339" width="90" height="20" as="geometry" />
        </mxCell>
        <mxCell id="9" value="P1 ( x1, y1 )" style="text;html=1;fillColor=none;align=center;verticalAlign=middle;whiteSpace=wrap;rounded=0;fontColor=#000000;fontSize=14;fontStyle=1" parent="1" vertex="1">
          <mxGeometry x="400" y="210" width="90" height="20" as="geometry" />
        </mxCell>
        <mxCell id="10" value="P2 ( x2, y2 )" style="text;html=1;fillColor=none;align=center;verticalAlign=middle;whiteSpace=wrap;rounded=0;fontColor=#000000;fontSize=14;fontStyle=1" parent="1" vertex="1">
          <mxGeometry x="640" y="180" width="90" height="20" as="geometry" />
        </mxCell>
        <mxCell id="11" value="" style="verticalLabelPosition=bottom;verticalAlign=top;html=1;shape=mxgraph.basic.arc;startAngle=0.12284938843075538;endAngle=0.19554419958102937;fontSize=14;fontColor=#ffffff;fillColor=#e51400;strokeWidth=4;strokeColor=#FF9933;" parent="1" vertex="1">
          <mxGeometry x="465" y="213" width="52" height="73" as="geometry" />
        </mxCell>
        <mxCell id="13" value="&lt;font color=&quot;#ff9933&quot;&gt;theta&lt;/font&gt;" style="text;html=1;fillColor=none;align=center;verticalAlign=middle;whiteSpace=wrap;rounded=0;fontColor=#000000;fontSize=14;fontStyle=1" parent="1" vertex="1">
          <mxGeometry x="492" y="207" width="90" height="20" as="geometry" />
        </mxCell>
        <mxCell id="15" value="" style="endArrow=none;html=1;strokeWidth=4;startArrow=none;startFill=0;endFill=0;dashed=1;fillColor=#d5e8d4;gradientColor=#97d077;strokeColor=#000000;" parent="1" edge="1">
          <mxGeometry width="50" height="50" relative="1" as="geometry">
            <mxPoint x="490" y="240" as="sourcePoint" />
            <mxPoint x="580" y="150" as="targetPoint" />
          </mxGeometry>
        </mxCell>
      </root>
    </mxGraphModel>
  </diagram>
  <diagram id="S3TT6FWY6wlJtiyWpEly" name="Page-5">
    <mxGraphModel dx="1357" dy="807" grid="0" gridSize="10" guides="1" tooltips="1" connect="1" arrows="1" fold="1" page="1" pageScale="1" pageWidth="1169" pageHeight="827" background="#ffffff" math="1" shadow="0">
      <root>
        <mxCell id="P2edfQlIa4kU6NB3tRC9-0" />
        <mxCell id="P2edfQlIa4kU6NB3tRC9-1" parent="P2edfQlIa4kU6NB3tRC9-0" />
        <mxCell id="P2edfQlIa4kU6NB3tRC9-3" value="" style="ellipse;whiteSpace=wrap;html=1;aspect=fixed;strokeWidth=4;fillColor=#2a2a2a;gradientColor=none;strokeColor=none;" parent="P2edfQlIa4kU6NB3tRC9-1" vertex="1">
          <mxGeometry x="277" y="396" width="15" height="15" as="geometry" />
        </mxCell>
        <mxCell id="P2edfQlIa4kU6NB3tRC9-5" value="" style="ellipse;whiteSpace=wrap;html=1;aspect=fixed;strokeWidth=4;fillColor=#2a2a2a;gradientColor=none;strokeColor=none;" parent="P2edfQlIa4kU6NB3tRC9-1" vertex="1">
          <mxGeometry x="212" y="529" width="15" height="15" as="geometry" />
        </mxCell>
        <mxCell id="P2edfQlIa4kU6NB3tRC9-6" value="" style="curved=1;endArrow=none;html=1;strokeColor=#00B300;strokeWidth=5;endFill=0;" parent="P2edfQlIa4kU6NB3tRC9-1" target="P2edfQlIa4kU6NB3tRC9-5" edge="1">
          <mxGeometry x="212" y="161" width="50" height="50" as="geometry">
            <mxPoint x="217" y="541" as="sourcePoint" />
            <mxPoint x="1047" y="266" as="targetPoint" />
            <Array as="points" />
          </mxGeometry>
        </mxCell>
        <mxCell id="P2edfQlIa4kU6NB3tRC9-7" value="" style="ellipse;whiteSpace=wrap;html=1;aspect=fixed;strokeWidth=4;fillColor=#2a2a2a;gradientColor=none;strokeColor=none;" parent="P2edfQlIa4kU6NB3tRC9-1" vertex="1">
          <mxGeometry x="570" y="238" width="15" height="15" as="geometry" />
        </mxCell>
        <mxCell id="P2edfQlIa4kU6NB3tRC9-9" value="" style="ellipse;whiteSpace=wrap;html=1;aspect=fixed;strokeWidth=4;fillColor=#2a2a2a;gradientColor=none;strokeColor=none;" parent="P2edfQlIa4kU6NB3tRC9-1" vertex="1">
          <mxGeometry x="700" y="226" width="15" height="15" as="geometry" />
        </mxCell>
        <mxCell id="P2edfQlIa4kU6NB3tRC9-10" value="" style="ellipse;whiteSpace=wrap;html=1;aspect=fixed;strokeWidth=4;fillColor=#2a2a2a;gradientColor=none;strokeColor=none;" parent="P2edfQlIa4kU6NB3tRC9-1" vertex="1">
          <mxGeometry x="1043" y="260" width="15" height="15" as="geometry" />
        </mxCell>
        <mxCell id="P2edfQlIa4kU6NB3tRC9-11" value="" style="ellipse;whiteSpace=wrap;html=1;aspect=fixed;strokeWidth=4;fillColor=#2a2a2a;gradientColor=none;strokeColor=none;" parent="P2edfQlIa4kU6NB3tRC9-1" vertex="1">
          <mxGeometry x="918" y="253" width="15" height="15" as="geometry" />
        </mxCell>
        <mxCell id="P2edfQlIa4kU6NB3tRC9-12" value="" style="ellipse;whiteSpace=wrap;html=1;aspect=fixed;strokeWidth=4;fillColor=#2a2a2a;gradientColor=none;strokeColor=none;" parent="P2edfQlIa4kU6NB3tRC9-1" vertex="1">
          <mxGeometry x="810" y="226" width="15" height="15" as="geometry" />
        </mxCell>
        <mxCell id="P2edfQlIa4kU6NB3tRC9-13" value="" style="ellipse;whiteSpace=wrap;html=1;aspect=fixed;strokeWidth=4;fillColor=#2a2a2a;gradientColor=none;strokeColor=none;" parent="P2edfQlIa4kU6NB3tRC9-1" vertex="1">
          <mxGeometry x="453" y="295" width="15" height="15" as="geometry" />
        </mxCell>
        <mxCell id="P2edfQlIa4kU6NB3tRC9-15" value="" style="ellipse;whiteSpace=wrap;html=1;aspect=fixed;strokeWidth=4;fillColor=#2a2a2a;gradientColor=none;strokeColor=none;" parent="P2edfQlIa4kU6NB3tRC9-1" vertex="1">
          <mxGeometry x="357" y="350" width="15" height="15" as="geometry" />
        </mxCell>
        <mxCell id="P2edfQlIa4kU6NB3tRC9-16" value="&lt;font style=&quot;font-size: 18px&quot;&gt;`P_0 ( x_0, y_0 )`&lt;/font&gt;" style="text;html=1;fillColor=none;align=center;verticalAlign=middle;whiteSpace=wrap;rounded=0;fontColor=#000000;fontSize=14;fontStyle=1" parent="P2edfQlIa4kU6NB3tRC9-1" vertex="1">
          <mxGeometry x="237" y="535" width="137" height="20" as="geometry" />
        </mxCell>
        <mxCell id="P2edfQlIa4kU6NB3tRC9-17" value="&lt;font style=&quot;font-size: 18px&quot;&gt;`P_i ( x_i, y_i )`&lt;/font&gt;" style="text;html=1;fillColor=none;align=center;verticalAlign=middle;whiteSpace=wrap;rounded=0;fontColor=#000000;fontSize=14;fontStyle=1" parent="P2edfQlIa4kU6NB3tRC9-1" vertex="1">
          <mxGeometry x="542" y="275" width="186" height="44" as="geometry" />
        </mxCell>
        <mxCell id="P2edfQlIa4kU6NB3tRC9-18" value="&lt;font style=&quot;font-size: 18px&quot;&gt;`P_n ( x_n, y_n )`&lt;/font&gt;" style="text;html=1;fillColor=none;align=center;verticalAlign=middle;whiteSpace=wrap;rounded=0;fontColor=#000000;fontSize=14;fontStyle=1" parent="P2edfQlIa4kU6NB3tRC9-1" vertex="1">
          <mxGeometry x="988" y="290" width="136" height="20" as="geometry" />
        </mxCell>
        <mxCell id="N9FohAa819nWw7oCexpw-1" value="" style="curved=1;endArrow=none;html=1;endFill=0;strokeWidth=5;strokeColor=#6666FF;" parent="P2edfQlIa4kU6NB3tRC9-1" edge="1">
          <mxGeometry width="50" height="50" relative="1" as="geometry">
            <mxPoint x="221" y="533" as="sourcePoint" />
            <mxPoint x="521" y="273" as="targetPoint" />
            <Array as="points">
              <mxPoint x="276" y="406" />
              <mxPoint x="407" y="303" />
            </Array>
          </mxGeometry>
        </mxCell>
        <mxCell id="N9FohAa819nWw7oCexpw-2" value="" style="curved=1;endArrow=none;html=1;strokeColor=#EA6B66;strokeWidth=5;endFill=0;" parent="P2edfQlIa4kU6NB3tRC9-1" edge="1">
          <mxGeometry width="50" height="50" relative="1" as="geometry">
            <mxPoint x="520" y="273" as="sourcePoint" />
            <mxPoint x="1051" y="268" as="targetPoint" />
            <Array as="points">
              <mxPoint x="750" y="217" />
            </Array>
          </mxGeometry>
        </mxCell>
        <mxCell id="N9FohAa819nWw7oCexpw-3" value="" style="rounded=0;whiteSpace=wrap;html=1;fillColor=none;strokeWidth=5;strokeColor=#00CC00;" parent="P2edfQlIa4kU6NB3tRC9-1" vertex="1">
          <mxGeometry x="487" y="241" width="71" height="67" as="geometry" />
        </mxCell>
      </root>
    </mxGraphModel>
  </diagram>
  <diagram id="d_0CSSUfGpOLgzQ4uhdz" name="Page-6">
    <mxGraphModel dx="1357" dy="807" grid="1" gridSize="10" guides="1" tooltips="1" connect="1" arrows="1" fold="1" page="1" pageScale="1" pageWidth="1169" pageHeight="827" math="1" shadow="0">
      <root>
        <mxCell id="FVhu0wnEtTb-1ISWkzqW-0" />
        <mxCell id="FVhu0wnEtTb-1ISWkzqW-1" parent="FVhu0wnEtTb-1ISWkzqW-0" />
        <mxCell id="n478FI64fpul2nEOuWVr-0" value="" style="rounded=0;whiteSpace=wrap;html=1;fillColor=none;strokeColor=#FF0000;strokeWidth=4;rotation=-25;" parent="FVhu0wnEtTb-1ISWkzqW-1" vertex="1">
          <mxGeometry x="420.69" y="283.82" width="79.5" height="33" as="geometry" />
        </mxCell>
        <mxCell id="n478FI64fpul2nEOuWVr-1" value="" style="ellipse;whiteSpace=wrap;html=1;aspect=fixed;strokeWidth=4;fillColor=#2a2a2a;gradientColor=none;strokeColor=none;" parent="FVhu0wnEtTb-1ISWkzqW-1" vertex="1">
          <mxGeometry x="277" y="396" width="15" height="15" as="geometry" />
        </mxCell>
        <mxCell id="n478FI64fpul2nEOuWVr-2" value="" style="curved=1;endArrow=none;html=1;strokeColor=#00B300;strokeWidth=5;endFill=0;" parent="FVhu0wnEtTb-1ISWkzqW-1" source="n478FI64fpul2nEOuWVr-3" edge="1">
          <mxGeometry x="212" y="161" width="50" height="50" as="geometry">
            <mxPoint x="217" y="541" as="sourcePoint" />
            <mxPoint x="1047" y="266" as="targetPoint" />
            <Array as="points">
              <mxPoint x="347" y="161" />
            </Array>
          </mxGeometry>
        </mxCell>
        <mxCell id="n478FI64fpul2nEOuWVr-3" value="" style="ellipse;whiteSpace=wrap;html=1;aspect=fixed;strokeWidth=4;fillColor=#2a2a2a;gradientColor=none;strokeColor=none;" parent="FVhu0wnEtTb-1ISWkzqW-1" vertex="1">
          <mxGeometry x="212" y="529" width="15" height="15" as="geometry" />
        </mxCell>
        <mxCell id="n478FI64fpul2nEOuWVr-4" value="" style="curved=1;endArrow=none;html=1;strokeColor=#00B300;strokeWidth=5;endFill=0;" parent="FVhu0wnEtTb-1ISWkzqW-1" target="n478FI64fpul2nEOuWVr-3" edge="1">
          <mxGeometry x="212" y="161" width="50" height="50" as="geometry">
            <mxPoint x="217" y="541" as="sourcePoint" />
            <mxPoint x="1047" y="266" as="targetPoint" />
            <Array as="points" />
          </mxGeometry>
        </mxCell>
        <mxCell id="n478FI64fpul2nEOuWVr-5" value="" style="ellipse;whiteSpace=wrap;html=1;aspect=fixed;strokeWidth=4;fillColor=#2a2a2a;gradientColor=none;strokeColor=none;" parent="FVhu0wnEtTb-1ISWkzqW-1" vertex="1">
          <mxGeometry x="570" y="238" width="15" height="15" as="geometry" />
        </mxCell>
        <mxCell id="n478FI64fpul2nEOuWVr-6" value="" style="ellipse;whiteSpace=wrap;html=1;aspect=fixed;strokeWidth=4;fillColor=#2a2a2a;gradientColor=none;strokeColor=none;" parent="FVhu0wnEtTb-1ISWkzqW-1" vertex="1">
          <mxGeometry x="700" y="226" width="15" height="15" as="geometry" />
        </mxCell>
        <mxCell id="n478FI64fpul2nEOuWVr-7" value="" style="ellipse;whiteSpace=wrap;html=1;aspect=fixed;strokeWidth=4;fillColor=#2a2a2a;gradientColor=none;strokeColor=none;" parent="FVhu0wnEtTb-1ISWkzqW-1" vertex="1">
          <mxGeometry x="1043" y="260" width="15" height="15" as="geometry" />
        </mxCell>
        <mxCell id="n478FI64fpul2nEOuWVr-8" value="" style="ellipse;whiteSpace=wrap;html=1;aspect=fixed;strokeWidth=4;fillColor=#2a2a2a;gradientColor=none;strokeColor=none;" parent="FVhu0wnEtTb-1ISWkzqW-1" vertex="1">
          <mxGeometry x="918" y="253" width="15" height="15" as="geometry" />
        </mxCell>
        <mxCell id="n478FI64fpul2nEOuWVr-9" value="" style="ellipse;whiteSpace=wrap;html=1;aspect=fixed;strokeWidth=4;fillColor=#2a2a2a;gradientColor=none;strokeColor=none;" parent="FVhu0wnEtTb-1ISWkzqW-1" vertex="1">
          <mxGeometry x="810" y="226" width="15" height="15" as="geometry" />
        </mxCell>
        <mxCell id="n478FI64fpul2nEOuWVr-10" value="" style="ellipse;whiteSpace=wrap;html=1;aspect=fixed;strokeWidth=4;fillColor=#2a2a2a;gradientColor=none;strokeColor=none;" parent="FVhu0wnEtTb-1ISWkzqW-1" vertex="1">
          <mxGeometry x="453" y="295" width="15" height="15" as="geometry" />
        </mxCell>
        <mxCell id="n478FI64fpul2nEOuWVr-11" value="" style="ellipse;whiteSpace=wrap;html=1;aspect=fixed;strokeWidth=4;fillColor=#2a2a2a;gradientColor=none;strokeColor=none;" parent="FVhu0wnEtTb-1ISWkzqW-1" vertex="1">
          <mxGeometry x="357" y="350" width="15" height="15" as="geometry" />
        </mxCell>
        <mxCell id="n478FI64fpul2nEOuWVr-12" value="&lt;font style=&quot;font-size: 18px&quot;&gt;`P_0 ( x_0, y_0 )`&lt;/font&gt;" style="text;html=1;fillColor=none;align=center;verticalAlign=middle;whiteSpace=wrap;rounded=0;fontColor=#000000;fontSize=14;fontStyle=1" parent="FVhu0wnEtTb-1ISWkzqW-1" vertex="1">
          <mxGeometry x="237" y="535" width="137" height="20" as="geometry" />
        </mxCell>
        <mxCell id="n478FI64fpul2nEOuWVr-13" value="&lt;font style=&quot;font-size: 18px&quot;&gt;`P_i ( x_i, y_i )`&lt;/font&gt;" style="text;html=1;fillColor=none;align=center;verticalAlign=middle;whiteSpace=wrap;rounded=0;fontColor=#000000;fontSize=14;fontStyle=1" parent="FVhu0wnEtTb-1ISWkzqW-1" vertex="1">
          <mxGeometry x="542" y="275" width="186" height="44" as="geometry" />
        </mxCell>
        <mxCell id="n478FI64fpul2nEOuWVr-14" value="&lt;font style=&quot;font-size: 18px&quot;&gt;`P_n ( x_n, y_n )`&lt;/font&gt;" style="text;html=1;fillColor=none;align=center;verticalAlign=middle;whiteSpace=wrap;rounded=0;fontColor=#000000;fontSize=14;fontStyle=1" parent="FVhu0wnEtTb-1ISWkzqW-1" vertex="1">
          <mxGeometry x="988" y="290" width="136" height="20" as="geometry" />
        </mxCell>
        <mxCell id="n478FI64fpul2nEOuWVr-15" value="" style="rounded=0;whiteSpace=wrap;html=1;fillColor=none;strokeColor=#FF0000;strokeWidth=4;rotation=-55;" parent="FVhu0wnEtTb-1ISWkzqW-1" vertex="1">
          <mxGeometry x="249.9" y="385.04" width="77" height="38.2" as="geometry" />
        </mxCell>
        <mxCell id="n478FI64fpul2nEOuWVr-16" value="" style="rounded=0;whiteSpace=wrap;html=1;fillColor=none;strokeColor=#FF0000;strokeWidth=4;rotation=-5;" parent="FVhu0wnEtTb-1ISWkzqW-1" vertex="1">
          <mxGeometry x="670" y="221.99999999999994" width="79.5" height="33" as="geometry" />
        </mxCell>
        <mxCell id="n478FI64fpul2nEOuWVr-17" value="" style="endArrow=blockThin;html=1;strokeWidth=4;endFill=1;strokeColor=#FF9933;" parent="FVhu0wnEtTb-1ISWkzqW-1" edge="1">
          <mxGeometry width="50" height="50" relative="1" as="geometry">
            <mxPoint x="220.8251642990549" y="528.9966511215498" as="sourcePoint" />
            <mxPoint x="278.0000000000002" y="278" as="targetPoint" />
          </mxGeometry>
        </mxCell>
      </root>
    </mxGraphModel>
  </diagram>
  <diagram id="P2S7a6anhXoKikD63d0q" name="第 7 页">
    <mxGraphModel dx="1357" dy="807" grid="1" gridSize="10" guides="1" tooltips="1" connect="1" arrows="1" fold="1" page="1" pageScale="1" pageWidth="850" pageHeight="1100" math="1" shadow="0">
      <root>
        <mxCell id="ZH5btaF2E1ur9hXwwTwc-0" />
        <mxCell id="ZH5btaF2E1ur9hXwwTwc-1" parent="ZH5btaF2E1ur9hXwwTwc-0" />
        <mxCell id="ZH5btaF2E1ur9hXwwTwc-2" value="" style="rounded=0;whiteSpace=wrap;html=1;fillColor=none;strokeColor=#FF0000;strokeWidth=4;rotation=-25;" vertex="1" parent="ZH5btaF2E1ur9hXwwTwc-1">
          <mxGeometry x="420.69" y="283.82" width="79.5" height="33" as="geometry" />
        </mxCell>
        <mxCell id="ZH5btaF2E1ur9hXwwTwc-3" value="" style="ellipse;whiteSpace=wrap;html=1;aspect=fixed;strokeWidth=4;fillColor=#2a2a2a;gradientColor=none;strokeColor=none;" vertex="1" parent="ZH5btaF2E1ur9hXwwTwc-1">
          <mxGeometry x="277" y="396" width="15" height="15" as="geometry" />
        </mxCell>
        <mxCell id="ZH5btaF2E1ur9hXwwTwc-4" value="" style="curved=1;endArrow=none;html=1;strokeColor=#00B300;strokeWidth=5;endFill=0;" edge="1" parent="ZH5btaF2E1ur9hXwwTwc-1" source="ZH5btaF2E1ur9hXwwTwc-5">
          <mxGeometry x="212" y="161" width="50" height="50" as="geometry">
            <mxPoint x="217" y="541" as="sourcePoint" />
            <mxPoint x="1047" y="266" as="targetPoint" />
            <Array as="points">
              <mxPoint x="347" y="161" />
            </Array>
          </mxGeometry>
        </mxCell>
        <mxCell id="ZH5btaF2E1ur9hXwwTwc-5" value="" style="ellipse;whiteSpace=wrap;html=1;aspect=fixed;strokeWidth=4;fillColor=#2a2a2a;gradientColor=none;strokeColor=none;" vertex="1" parent="ZH5btaF2E1ur9hXwwTwc-1">
          <mxGeometry x="212" y="529" width="15" height="15" as="geometry" />
        </mxCell>
        <mxCell id="ZH5btaF2E1ur9hXwwTwc-6" value="" style="curved=1;endArrow=none;html=1;strokeColor=#00B300;strokeWidth=5;endFill=0;" edge="1" parent="ZH5btaF2E1ur9hXwwTwc-1" target="ZH5btaF2E1ur9hXwwTwc-5">
          <mxGeometry x="212" y="161" width="50" height="50" as="geometry">
            <mxPoint x="217" y="541" as="sourcePoint" />
            <mxPoint x="1047" y="266" as="targetPoint" />
            <Array as="points" />
          </mxGeometry>
        </mxCell>
        <mxCell id="ZH5btaF2E1ur9hXwwTwc-7" value="" style="ellipse;whiteSpace=wrap;html=1;aspect=fixed;strokeWidth=4;fillColor=#2a2a2a;gradientColor=none;strokeColor=none;" vertex="1" parent="ZH5btaF2E1ur9hXwwTwc-1">
          <mxGeometry x="570" y="238" width="15" height="15" as="geometry" />
        </mxCell>
        <mxCell id="ZH5btaF2E1ur9hXwwTwc-8" value="" style="ellipse;whiteSpace=wrap;html=1;aspect=fixed;strokeWidth=4;fillColor=#2a2a2a;gradientColor=none;strokeColor=none;" vertex="1" parent="ZH5btaF2E1ur9hXwwTwc-1">
          <mxGeometry x="700" y="226" width="15" height="15" as="geometry" />
        </mxCell>
        <mxCell id="ZH5btaF2E1ur9hXwwTwc-9" value="" style="ellipse;whiteSpace=wrap;html=1;aspect=fixed;strokeWidth=4;fillColor=#2a2a2a;gradientColor=none;strokeColor=none;" vertex="1" parent="ZH5btaF2E1ur9hXwwTwc-1">
          <mxGeometry x="1043" y="260" width="15" height="15" as="geometry" />
        </mxCell>
        <mxCell id="ZH5btaF2E1ur9hXwwTwc-10" value="" style="ellipse;whiteSpace=wrap;html=1;aspect=fixed;strokeWidth=4;fillColor=#2a2a2a;gradientColor=none;strokeColor=none;" vertex="1" parent="ZH5btaF2E1ur9hXwwTwc-1">
          <mxGeometry x="918" y="253" width="15" height="15" as="geometry" />
        </mxCell>
        <mxCell id="ZH5btaF2E1ur9hXwwTwc-11" value="" style="ellipse;whiteSpace=wrap;html=1;aspect=fixed;strokeWidth=4;fillColor=#2a2a2a;gradientColor=none;strokeColor=none;" vertex="1" parent="ZH5btaF2E1ur9hXwwTwc-1">
          <mxGeometry x="810" y="226" width="15" height="15" as="geometry" />
        </mxCell>
        <mxCell id="ZH5btaF2E1ur9hXwwTwc-12" value="" style="ellipse;whiteSpace=wrap;html=1;aspect=fixed;strokeWidth=4;fillColor=#2a2a2a;gradientColor=none;strokeColor=none;" vertex="1" parent="ZH5btaF2E1ur9hXwwTwc-1">
          <mxGeometry x="453" y="295" width="15" height="15" as="geometry" />
        </mxCell>
        <mxCell id="ZH5btaF2E1ur9hXwwTwc-13" value="" style="ellipse;whiteSpace=wrap;html=1;aspect=fixed;strokeWidth=4;fillColor=#2a2a2a;gradientColor=none;strokeColor=none;" vertex="1" parent="ZH5btaF2E1ur9hXwwTwc-1">
          <mxGeometry x="357" y="350" width="15" height="15" as="geometry" />
        </mxCell>
        <mxCell id="ZH5btaF2E1ur9hXwwTwc-14" value="&lt;font style=&quot;font-size: 18px&quot;&gt;`P_0 ( x_0, y_0 )`&lt;/font&gt;" style="text;html=1;fillColor=none;align=center;verticalAlign=middle;whiteSpace=wrap;rounded=0;fontColor=#000000;fontSize=14;fontStyle=1" vertex="1" parent="ZH5btaF2E1ur9hXwwTwc-1">
          <mxGeometry x="237" y="535" width="137" height="20" as="geometry" />
        </mxCell>
        <mxCell id="ZH5btaF2E1ur9hXwwTwc-15" value="&lt;font style=&quot;font-size: 18px&quot;&gt;`P_i ( x_i, y_i )`&lt;/font&gt;" style="text;html=1;fillColor=none;align=center;verticalAlign=middle;whiteSpace=wrap;rounded=0;fontColor=#000000;fontSize=14;fontStyle=1" vertex="1" parent="ZH5btaF2E1ur9hXwwTwc-1">
          <mxGeometry x="542" y="275" width="186" height="44" as="geometry" />
        </mxCell>
        <mxCell id="ZH5btaF2E1ur9hXwwTwc-16" value="&lt;font style=&quot;font-size: 18px&quot;&gt;`P_n ( x_n, y_n )`&lt;/font&gt;" style="text;html=1;fillColor=none;align=center;verticalAlign=middle;whiteSpace=wrap;rounded=0;fontColor=#000000;fontSize=14;fontStyle=1" vertex="1" parent="ZH5btaF2E1ur9hXwwTwc-1">
          <mxGeometry x="988" y="290" width="136" height="20" as="geometry" />
        </mxCell>
        <mxCell id="ZH5btaF2E1ur9hXwwTwc-17" value="" style="rounded=0;whiteSpace=wrap;html=1;fillColor=none;strokeColor=#FF0000;strokeWidth=4;rotation=-55;" vertex="1" parent="ZH5btaF2E1ur9hXwwTwc-1">
          <mxGeometry x="249.9" y="385.04" width="77" height="38.2" as="geometry" />
        </mxCell>
        <mxCell id="ZH5btaF2E1ur9hXwwTwc-18" value="" style="rounded=0;whiteSpace=wrap;html=1;fillColor=none;strokeColor=#FF0000;strokeWidth=4;rotation=-5;" vertex="1" parent="ZH5btaF2E1ur9hXwwTwc-1">
          <mxGeometry x="670" y="221.99999999999994" width="79.5" height="33" as="geometry" />
        </mxCell>
        <mxCell id="ZH5btaF2E1ur9hXwwTwc-19" value="" style="endArrow=blockThin;html=1;strokeWidth=4;endFill=1;strokeColor=#FF9933;" edge="1" parent="ZH5btaF2E1ur9hXwwTwc-1">
          <mxGeometry width="50" height="50" relative="1" as="geometry">
            <mxPoint x="220.8251642990549" y="528.9966511215498" as="sourcePoint" />
            <mxPoint x="278" y="278" as="targetPoint" />
          </mxGeometry>
        </mxCell>
        <mxCell id="ZH5btaF2E1ur9hXwwTwc-20" value="" style="rounded=0;whiteSpace=wrap;html=1;fillColor=none;strokeWidth=4;rotation=0;strokeColor=#3399FF;" vertex="1" parent="ZH5btaF2E1ur9hXwwTwc-1">
          <mxGeometry x="249.89999999999998" y="384.40000000000003" width="77" height="38.2" as="geometry" />
        </mxCell>
        <mxCell id="ZH5btaF2E1ur9hXwwTwc-21" value="" style="rounded=0;whiteSpace=wrap;html=1;fillColor=none;strokeWidth=4;rotation=0;strokeColor=#3399FF;" vertex="1" parent="ZH5btaF2E1ur9hXwwTwc-1">
          <mxGeometry x="421.93999999999994" y="278.62" width="77" height="38.2" as="geometry" />
        </mxCell>
        <mxCell id="ZH5btaF2E1ur9hXwwTwc-22" value="" style="rounded=0;whiteSpace=wrap;html=1;fillColor=none;strokeWidth=4;rotation=0;strokeColor=#3399FF;" vertex="1" parent="ZH5btaF2E1ur9hXwwTwc-1">
          <mxGeometry x="671.25" y="222.00000000000003" width="77" height="38.2" as="geometry" />
        </mxCell>
      </root>
    </mxGraphModel>
  </diagram>
  <diagram id="lPBr--60yE-RMuCtjvVy" name="第 8 页">
    <mxGraphModel dx="1413" dy="1191" grid="1" gridSize="10" guides="1" tooltips="1" connect="1" arrows="1" fold="1" page="1" pageScale="1" pageWidth="850" pageHeight="1100" background="#ffffff" math="1" shadow="0">
      <root>
        <mxCell id="OK1V4KeL6pWvwz3Aqe3U-0" />
        <mxCell id="OK1V4KeL6pWvwz3Aqe3U-1" parent="OK1V4KeL6pWvwz3Aqe3U-0" />
        <mxCell id="OK1V4KeL6pWvwz3Aqe3U-2" value="" style="ellipse;whiteSpace=wrap;html=1;aspect=fixed;strokeWidth=4;fillColor=#2a2a2a;gradientColor=none;strokeColor=none;" vertex="1" parent="OK1V4KeL6pWvwz3Aqe3U-1">
          <mxGeometry x="385" y="345" width="15" height="15" as="geometry" />
        </mxCell>
        <mxCell id="OK1V4KeL6pWvwz3Aqe3U-3" value="" style="curved=1;endArrow=none;html=1;strokeColor=#00B300;strokeWidth=5;endFill=0;" edge="1" parent="OK1V4KeL6pWvwz3Aqe3U-1" source="OK1V4KeL6pWvwz3Aqe3U-4">
          <mxGeometry x="320" y="110" width="50" height="50" as="geometry">
            <mxPoint x="325" y="490" as="sourcePoint" />
            <mxPoint x="1155" y="215" as="targetPoint" />
            <Array as="points">
              <mxPoint x="455" y="110" />
            </Array>
          </mxGeometry>
        </mxCell>
        <mxCell id="OK1V4KeL6pWvwz3Aqe3U-4" value="" style="ellipse;whiteSpace=wrap;html=1;aspect=fixed;strokeWidth=4;fillColor=#2a2a2a;gradientColor=none;strokeColor=none;" vertex="1" parent="OK1V4KeL6pWvwz3Aqe3U-1">
          <mxGeometry x="320" y="478" width="15" height="15" as="geometry" />
        </mxCell>
        <mxCell id="OK1V4KeL6pWvwz3Aqe3U-5" value="" style="curved=1;endArrow=none;html=1;strokeColor=#00B300;strokeWidth=5;endFill=0;" edge="1" parent="OK1V4KeL6pWvwz3Aqe3U-1" target="OK1V4KeL6pWvwz3Aqe3U-4">
          <mxGeometry x="320" y="110" width="50" height="50" as="geometry">
            <mxPoint x="325" y="490" as="sourcePoint" />
            <mxPoint x="1155" y="215" as="targetPoint" />
            <Array as="points" />
          </mxGeometry>
        </mxCell>
        <mxCell id="OK1V4KeL6pWvwz3Aqe3U-6" value="" style="ellipse;whiteSpace=wrap;html=1;aspect=fixed;strokeWidth=4;fillColor=#2a2a2a;gradientColor=none;strokeColor=none;" vertex="1" parent="OK1V4KeL6pWvwz3Aqe3U-1">
          <mxGeometry x="678" y="187" width="15" height="15" as="geometry" />
        </mxCell>
        <mxCell id="OK1V4KeL6pWvwz3Aqe3U-7" value="" style="ellipse;whiteSpace=wrap;html=1;aspect=fixed;strokeWidth=4;fillColor=#2a2a2a;gradientColor=none;strokeColor=none;" vertex="1" parent="OK1V4KeL6pWvwz3Aqe3U-1">
          <mxGeometry x="808" y="175" width="15" height="15" as="geometry" />
        </mxCell>
        <mxCell id="OK1V4KeL6pWvwz3Aqe3U-8" value="" style="ellipse;whiteSpace=wrap;html=1;aspect=fixed;strokeWidth=4;fillColor=#2a2a2a;gradientColor=none;strokeColor=none;" vertex="1" parent="OK1V4KeL6pWvwz3Aqe3U-1">
          <mxGeometry x="1151" y="209" width="15" height="15" as="geometry" />
        </mxCell>
        <mxCell id="OK1V4KeL6pWvwz3Aqe3U-9" value="" style="ellipse;whiteSpace=wrap;html=1;aspect=fixed;strokeWidth=4;fillColor=#2a2a2a;gradientColor=none;strokeColor=none;" vertex="1" parent="OK1V4KeL6pWvwz3Aqe3U-1">
          <mxGeometry x="1026" y="202" width="15" height="15" as="geometry" />
        </mxCell>
        <mxCell id="OK1V4KeL6pWvwz3Aqe3U-10" value="" style="ellipse;whiteSpace=wrap;html=1;aspect=fixed;strokeWidth=4;fillColor=#2a2a2a;gradientColor=none;strokeColor=none;" vertex="1" parent="OK1V4KeL6pWvwz3Aqe3U-1">
          <mxGeometry x="918" y="175" width="15" height="15" as="geometry" />
        </mxCell>
        <mxCell id="OK1V4KeL6pWvwz3Aqe3U-11" value="" style="ellipse;whiteSpace=wrap;html=1;aspect=fixed;strokeWidth=4;fillColor=#2a2a2a;gradientColor=none;strokeColor=none;" vertex="1" parent="OK1V4KeL6pWvwz3Aqe3U-1">
          <mxGeometry x="561" y="244" width="15" height="15" as="geometry" />
        </mxCell>
        <mxCell id="OK1V4KeL6pWvwz3Aqe3U-12" value="" style="ellipse;whiteSpace=wrap;html=1;aspect=fixed;strokeWidth=4;fillColor=#2a2a2a;gradientColor=none;strokeColor=none;" vertex="1" parent="OK1V4KeL6pWvwz3Aqe3U-1">
          <mxGeometry x="465" y="299" width="15" height="15" as="geometry" />
        </mxCell>
        <mxCell id="OK1V4KeL6pWvwz3Aqe3U-13" value="&lt;font style=&quot;font-size: 18px&quot;&gt;`P_0 ( x_0, y_0 )`&lt;/font&gt;" style="text;html=1;fillColor=none;align=center;verticalAlign=middle;whiteSpace=wrap;rounded=0;fontColor=#000000;fontSize=14;fontStyle=1" vertex="1" parent="OK1V4KeL6pWvwz3Aqe3U-1">
          <mxGeometry x="345" y="484" width="137" height="20" as="geometry" />
        </mxCell>
        <mxCell id="OK1V4KeL6pWvwz3Aqe3U-14" value="&lt;font style=&quot;font-size: 18px&quot;&gt;`P_i ( x_i, y_i )`&lt;/font&gt;" style="text;html=1;fillColor=none;align=center;verticalAlign=middle;whiteSpace=wrap;rounded=0;fontColor=#000000;fontSize=14;fontStyle=1" vertex="1" parent="OK1V4KeL6pWvwz3Aqe3U-1">
          <mxGeometry x="650" y="224" width="186" height="44" as="geometry" />
        </mxCell>
        <mxCell id="OK1V4KeL6pWvwz3Aqe3U-15" value="&lt;font style=&quot;font-size: 18px&quot;&gt;`P_n ( x_n, y_n )`&lt;/font&gt;" style="text;html=1;fillColor=none;align=center;verticalAlign=middle;whiteSpace=wrap;rounded=0;fontColor=#000000;fontSize=14;fontStyle=1" vertex="1" parent="OK1V4KeL6pWvwz3Aqe3U-1">
          <mxGeometry x="1096" y="239" width="136" height="20" as="geometry" />
        </mxCell>
        <mxCell id="OK1V4KeL6pWvwz3Aqe3U-16" value="" style="endArrow=blockThin;html=1;strokeWidth=4;endFill=1;strokeColor=#FF9933;" edge="1" parent="OK1V4KeL6pWvwz3Aqe3U-1">
          <mxGeometry width="50" height="50" relative="1" as="geometry">
            <mxPoint x="328.8251642990549" y="477.9966511215498" as="sourcePoint" />
            <mxPoint x="386" y="227" as="targetPoint" />
          </mxGeometry>
        </mxCell>
        <mxCell id="OK1V4KeL6pWvwz3Aqe3U-17" value="" style="rounded=0;whiteSpace=wrap;html=1;fillColor=none;strokeWidth=4;rotation=0;strokeColor=#FF6666;" vertex="1" parent="OK1V4KeL6pWvwz3Aqe3U-1">
          <mxGeometry x="356.9" y="334.40000000000003" width="77" height="38.2" as="geometry" />
        </mxCell>
        <mxCell id="OK1V4KeL6pWvwz3Aqe3U-18" value="" style="rounded=0;whiteSpace=wrap;html=1;fillColor=none;strokeWidth=4;rotation=0;strokeColor=#FF6666;" vertex="1" parent="OK1V4KeL6pWvwz3Aqe3U-1">
          <mxGeometry x="529.9399999999999" y="228.62" width="77" height="38.2" as="geometry" />
        </mxCell>
        <mxCell id="OK1V4KeL6pWvwz3Aqe3U-19" value="" style="rounded=0;whiteSpace=wrap;html=1;fillColor=none;strokeWidth=4;rotation=0;strokeColor=#FF6666;" vertex="1" parent="OK1V4KeL6pWvwz3Aqe3U-1">
          <mxGeometry x="775" y="167.8" width="77" height="38.2" as="geometry" />
        </mxCell>
        <mxCell id="OK1V4KeL6pWvwz3Aqe3U-20" value="" style="rounded=0;whiteSpace=wrap;html=1;fillColor=none;strokeWidth=4;rotation=0;strokeColor=#FF6666;" vertex="1" parent="OK1V4KeL6pWvwz3Aqe3U-1">
          <mxGeometry x="434" y="287.40000000000003" width="77" height="38.2" as="geometry" />
        </mxCell>
        <mxCell id="OK1V4KeL6pWvwz3Aqe3U-21" value="" style="rounded=0;whiteSpace=wrap;html=1;fillColor=none;strokeWidth=4;rotation=0;strokeColor=#FF6666;" vertex="1" parent="OK1V4KeL6pWvwz3Aqe3U-1">
          <mxGeometry x="647" y="175.00000000000003" width="77" height="38.2" as="geometry" />
        </mxCell>
        <mxCell id="OK1V4KeL6pWvwz3Aqe3U-22" value="" style="rounded=0;whiteSpace=wrap;html=1;fillColor=none;strokeWidth=4;rotation=0;strokeColor=#FF6666;" vertex="1" parent="OK1V4KeL6pWvwz3Aqe3U-1">
          <mxGeometry x="887" y="167.80000000000004" width="77" height="38.2" as="geometry" />
        </mxCell>
        <mxCell id="OK1V4KeL6pWvwz3Aqe3U-23" value="" style="rounded=0;whiteSpace=wrap;html=1;fillColor=none;strokeWidth=4;rotation=0;strokeColor=#FF6666;" vertex="1" parent="OK1V4KeL6pWvwz3Aqe3U-1">
          <mxGeometry x="995" y="187.00000000000003" width="77" height="38.2" as="geometry" />
        </mxCell>
      </root>
    </mxGraphModel>
  </diagram>
</mxfile>
